<svg xmlns="http://www.w3.org/2000/svg" xmlns:xlink="http://www.w3.org/1999/xlink" width="40.472" height="40.472" viewBox="0 0 40.472 40.472">
  <defs>
    <clipPath id="clip-path">
      <path id="Path_162" data-name="Path 162" d="M0,0H40.472V40.472H0Z" fill="#565225"/>
    </clipPath>
  </defs>
  <g id="Group_287" data-name="Group 287" transform="translate(-619.764 -6666.764)">
    <g id="ic_directions_run_48px" transform="translate(619.764 6666.764)" clip-path="url(#clip-path)">
      <path id="Path_161" data-name="Path 161" d="M23.675,7.745A3.373,3.373,0,1,0,20.3,4.373,3.383,3.383,0,0,0,23.675,7.745ZM17.6,31.185l1.6-7.42,3.626,3.373V37.256H26.2V24.524l-3.457-3.457,1.012-5.059a11.767,11.767,0,0,0,9.191,4.384V17.02a8.645,8.645,0,0,1-7.336-4.132l-1.6-2.7a3.289,3.289,0,0,0-2.867-1.6,3.383,3.383,0,0,0-1.265.253l-8.853,3.626v7.926H14.4V14.744l2.951-1.18L14.738,27.138l-8.263-1.6L5.8,28.825S17.6,31.1,17.6,31.185Z" transform="translate(-0.91 -0.157)" fill="#565225"/>
    </g>
  </g>
</svg>
