<svg xmlns="http://www.w3.org/2000/svg" width="38.11" height="71.871" viewBox="0 0 38.11 71.871">
  <g id="Group_88" data-name="Group 88" transform="translate(-617 -3818)">
    <g id="_086-down-arrow" data-name="086-down-arrow" transform="translate(489.451 3847)">
      <path id="Path_148" data-name="Path 148" d="M165.956,25.376a2.382,2.382,0,0,0-2.234-1.558h-7.145V9.382A2.38,2.38,0,0,0,154.194,7H139.9a2.38,2.38,0,0,0-2.382,2.382V23.818h-7.145A2.379,2.379,0,0,0,128.828,28L145.5,42.3a2.371,2.371,0,0,0,3.1,0L165.27,28A2.37,2.37,0,0,0,165.956,25.376Z" transform="translate(-0.445)" fill="#306fb2"/>
    </g>
    <rect id="Rectangle_207" data-name="Rectangle 207" width="14" height="14" rx="4" transform="translate(629 3833)" fill="#306fb2"/>
    <rect id="Rectangle_208" data-name="Rectangle 208" width="10" height="10" rx="3" transform="translate(631 3818)" fill="#306fb2"/>
  </g>
</svg>
