<svg xmlns="http://www.w3.org/2000/svg" width="28.001" height="21.242" viewBox="0 0 28.001 21.242">
  <path id="coffee-cup-on-a-plate-black-silhouettes" d="M1.132,84.063a3.721,3.721,0,0,0,2.731,1.132H23.174a3.863,3.863,0,0,0,3.862-3.862H0A3.722,3.722,0,0,0,1.132,84.063ZM7.242,79.4H17.863a3.4,3.4,0,0,0,3.379-3.379v-.483h.965a5.793,5.793,0,0,0,0-11.587H4.828a.979.979,0,0,0-.965.966v11.1a3.252,3.252,0,0,0,1,2.384A3.252,3.252,0,0,0,7.242,79.4Zm14-12.552h.966a2.9,2.9,0,1,1,0,5.793h-.966Z" transform="translate(0 -63.952)" fill="#565225"/>
</svg>
