<svg xmlns="http://www.w3.org/2000/svg" width="29.144" height="29.126" viewBox="0 0 29.144 29.126">
  <path id="small-rocket-ship-silhouette" d="M28.965.31a.6.6,0,0,0-.428-.17,20.1,20.1,0,0,0-7.692,1.267,20.809,20.809,0,0,0-6.389,4.6q-1.428,1.446-3.141,3.48l-6.764.357a.653.653,0,0,0-.464.286l-4,6.854a.542.542,0,0,0,.089.7L1.32,18.826a.556.556,0,0,0,.411.161.539.539,0,0,0,.161-.018l4.926-1.517,5.015,5.015-1.517,4.926a.568.568,0,0,0,.143.571L11.6,29.106a.643.643,0,0,0,.411.16A.566.566,0,0,0,12.3,29.2l6.854-4a.651.651,0,0,0,.286-.464l.357-6.764q2.035-1.713,3.48-3.141A20.417,20.417,0,0,0,27.8,8.394,19.933,19.933,0,0,0,29.144.711.536.536,0,0,0,28.965.31ZM24.647,7.065A1.713,1.713,0,0,1,21.72,5.851a1.713,1.713,0,1,1,3.427,0A1.651,1.651,0,0,1,24.647,7.065Z" transform="translate(0 -0.14)" fill="#565225"/>
</svg>
