<svg xmlns="http://www.w3.org/2000/svg" width="21.838" height="41.341" viewBox="0 0 21.838 41.341">
  <g id="Group_288" data-name="Group 288" transform="translate(-135 -4800)">
    <g id="Group_87" data-name="Group 87" transform="translate(135 4800.157)">
      <g id="_086-down-arrow" data-name="086-down-arrow" transform="translate(0 20.629)">
        <path id="Path_148" data-name="Path 148" d="M149.747,17.53a1.365,1.365,0,0,0-1.28-.893h-4.094V8.365A1.364,1.364,0,0,0,143.008,7h-8.189a1.364,1.364,0,0,0-1.365,1.365v8.272h-4.094a1.363,1.363,0,0,0-.887,2.4l9.554,8.189a1.359,1.359,0,0,0,1.774,0l9.554-8.189A1.358,1.358,0,0,0,149.747,17.53Z" transform="translate(-127.994 -7)" fill="#306fb2"/>
      </g>
      <rect id="Rectangle_207" data-name="Rectangle 207" width="8" height="8" rx="4" transform="translate(6.832 8.843)" fill="#306fb2"/>
      <rect id="Rectangle_208" data-name="Rectangle 208" width="6" height="6" rx="3" transform="translate(7.832 -0.157)" fill="#306fb2"/>
    </g>
  </g>
</svg>
