<svg xmlns="http://www.w3.org/2000/svg" xmlns:xlink="http://www.w3.org/1999/xlink" width="73" height="95" viewBox="0 0 73 95">
  <defs>
    <clipPath id="clip-path">
      <rect id="Rectangle_261" data-name="Rectangle 261" width="73" height="95" transform="translate(0.34 -0.32)" fill="#aa53b4" stroke="#707070" stroke-width="1"/>
    </clipPath>
    <clipPath id="clip-path-2">
      <rect id="Rectangle_266" data-name="Rectangle 266" width="55.495" height="118.132" fill="#aa53b4"/>
    </clipPath>
  </defs>
  <g id="Group_289" data-name="Group 289" transform="translate(-760 -7317)">
    <g id="Mask_Group_7" data-name="Mask Group 7" transform="translate(759.66 7317.32)" clip-path="url(#clip-path)">
      <g id="Group_106" data-name="Group 106" transform="translate(9.34 3.68)">
        <path id="Path_170" data-name="Path 170" d="M9.933,0,6.1,7.032l11.708,8.292.57-1.05L7.651,6.674l2.821-5.181L22.679,6.384l.572-1.051Z" transform="translate(-0.614)" fill="#aa53b4"/>
        <g id="Group_105" data-name="Group 105" transform="translate(0 0)">
          <g id="Group_104" data-name="Group 104" clip-path="url(#clip-path-2)">
            <path id="Path_171" data-name="Path 171" d="M10.933,8.686h8.509s1.978,1.781,2.571,5.938c.12.836-.988,1.582-2.275.3-.851-.853-8.806-6.235-8.806-6.235" transform="translate(-1.1 -0.874)" fill="#aa53b4"/>
            <path id="Path_172" data-name="Path 172" d="M24.229,18.069a.6.6,0,1,1-.6-.6.6.6,0,0,1,.6.6" transform="translate(-2.316 -1.757)" fill="#aa53b4"/>
            <path id="Path_173" data-name="Path 173" d="M33.574,10.946a8.761,8.761,0,1,0,8.759,8.761,8.761,8.761,0,0,0-8.759-8.761M36.9,23.105a1.738,1.738,0,0,1-1.739-1.738c0-.96,1.642-3.291,1.739-3.291s1.738,2.331,1.738,3.291A1.738,1.738,0,0,1,36.9,23.105" transform="translate(-2.496 -1.101)" fill="#aa53b4"/>
            <rect id="Rectangle_265" data-name="Rectangle 265" width="3.957" height="1.979" transform="translate(24.485 30.475)" fill="#aa53b4"/>
            <path id="Path_174" data-name="Path 174" d="M29.2,44.49l1.978-2.538V37.045H27.224v4.907Z" transform="translate(-2.739 -3.726)" fill="#aa53b4"/>
            <path id="Path_175" data-name="Path 175" d="M53.635,43.667l-10.2-6.789c-2.074-1.022-4.919-3-8.165-3.8-.1-.023-.21-.05-.333-.077L26.465,43.868,15.319,28.984l-5.8-1.409,3.484-9.633A3.409,3.409,0,0,0,6.763,15.2L.38,28.031c-.929,2.116-.135,4.158,2.147,5.512L14.3,39.679c.457.326.843.777.849.979l3.125,74.5a4.445,4.445,0,0,0,8.884-.291l1.4-39.814c.111-.851.63-.446.766-.055l9.006,39.112a4.444,4.444,0,1,0,8.741-1.612L39.731,63.33a3.38,3.38,0,0,0,1.855-.967L54.261,50.5l.144-.135.008-.007.015-.015c.005,0,.01-.011.015-.016a4.636,4.636,0,0,0-.809-6.657M26.745,48.31a1.113,1.113,0,1,1-1.113,1.112,1.113,1.113,0,0,1,1.113-1.112m.177,8.346a1.113,1.113,0,1,1,1.113-1.113,1.113,1.113,0,0,1-1.113,1.113m11.214-.523L36.948,45.149l8.114,3.215Z" transform="translate(0 -1.324)" fill="#aa53b4"/>
          </g>
        </g>
      </g>
    </g>
  </g>
</svg>
