<svg xmlns="http://www.w3.org/2000/svg" xmlns:xlink="http://www.w3.org/1999/xlink" width="73" height="71" viewBox="0 0 73 71">
  <defs>
    <clipPath id="clip-path">
      <rect id="Rectangle_261" data-name="Rectangle 261" width="73" height="71" transform="translate(0.34 -0.32)" fill="#0082ca" stroke="#707070" stroke-width="1"/>
    </clipPath>
    <clipPath id="clip-path-2">
      <rect id="Rectangle_260" data-name="Rectangle 260" width="54.705" height="116.451" fill="#0082ca"/>
    </clipPath>
  </defs>
  <g id="Group_288" data-name="Group 288" transform="translate(-757 -7326)">
    <g id="Mask_Group_7" data-name="Mask Group 7" transform="translate(756.66 7326.32)" clip-path="url(#clip-path)">
      <g id="Group_98" data-name="Group 98" transform="translate(9.13 4.433)" clip-path="url(#clip-path-2)">
        <path id="Path_165" data-name="Path 165" d="M42.084,19.583a8.636,8.636,0,1,1-8.635-8.635,8.636,8.636,0,0,1,8.635,8.635" transform="translate(-2.814 -1.242)" fill="#0082ca"/>
        <path id="Path_166" data-name="Path 166" d="M52.871,43.235,42.813,36.542c-2.044-1.006-4.849-2.958-8.049-3.744-2.741-.675-16.078-3.059-19.308-3.95L9.386,27.371l3.435-9.495a3.361,3.361,0,0,0-6.154-2.7L.375,27.821c-.916,2.085-.133,4.1,2.116,5.433L14.1,39.3c.45.322.831.767.837.966l3.08,73.438a4.381,4.381,0,1,0,8.758-.287l1.385-39.246c.109-.84.622-.441.755-.055l8.878,38.555a4.381,4.381,0,1,0,8.617-1.589L39.165,62.616a3.332,3.332,0,0,0,1.828-.953l12.495-11.7.142-.133.008-.007.015-.015.015-.017a4.569,4.569,0,0,0-.8-6.562M37.593,55.521,36.422,44.7l8,3.17Z" transform="translate(0 -1.493)" fill="#0082ca"/>
        <path id="Path_167" data-name="Path 167" d="M18.207,14.072,7.628,6.579l2.781-5.107L22.442,6.294l.564-1.035L9.878,0,6.1,6.933l11.54,8.174Z" transform="translate(-0.692 0)" fill="#0082ca"/>
        <path id="Path_168" data-name="Path 168" d="M10.933,8.688h8.388s1.95,1.755,2.535,5.852c.118.825-.974,1.56-2.242.293-.839-.84-8.681-6.145-8.681-6.145" transform="translate(-1.24 -0.985)" fill="#0082ca"/>
        <path id="Path_169" data-name="Path 169" d="M24.212,18.062a.595.595,0,1,1-.594-.594.595.595,0,0,1,.594.594" transform="translate(-2.611 -1.981)" fill="#0082ca"/>
      </g>
    </g>
  </g>
</svg>
